<?xml version="1.0" encoding="UTF-8" standalone="no"?>
<svg
   xmlns:dc="http://purl.org/dc/elements/1.1/"
   xmlns:cc="http://creativecommons.org/ns#"
   xmlns:rdf="http://www.w3.org/1999/02/22-rdf-syntax-ns#"
   xmlns:svg="http://www.w3.org/2000/svg"
   xmlns="http://www.w3.org/2000/svg"
   xmlns:sodipodi="http://sodipodi.sourceforge.net/DTD/sodipodi-0.dtd"
   xmlns:inkscape="http://www.inkscape.org/namespaces/inkscape"
   width="24"
   height="24"
   viewBox="0 0 24 23.999999"
   version="1.1"
   id="svg53"
   sodipodi:docname="threedy-icon.svg"
   inkscape:version="1.0.2 (e86c870879, 2021-01-15, custom)">
  <metadata
     id="metadata57">
    <rdf:RDF>
      <cc:Work
         rdf:about="">
        <dc:format>image/svg+xml</dc:format>
        <dc:type
           rdf:resource="http://purl.org/dc/dcmitype/StillImage" />
        <dc:title></dc:title>
      </cc:Work>
    </rdf:RDF>
  </metadata>
  <sodipodi:namedview
     pagecolor="#ffffff"
     bordercolor="#666666"
     borderopacity="1"
     objecttolerance="10"
     gridtolerance="10"
     guidetolerance="10"
     inkscape:pageopacity="0"
     inkscape:pageshadow="2"
     inkscape:window-width="2786"
     inkscape:window-height="1300"
     id="namedview55"
     showgrid="false"
     fit-margin-top="0"
     fit-margin-left="0"
     fit-margin-right="0"
     fit-margin-bottom="0"
     inkscape:zoom="2.1439108"
     inkscape:cx="121.73473"
     inkscape:cy="28.348134"
     inkscape:window-x="0"
     inkscape:window-y="0"
     inkscape:window-maximized="0"
     inkscape:current-layer="svg53"
     inkscape:document-rotation="0" />
  <defs
     id="defs6">
    <clipPath
       id="clip-path">
      <path
         id="Pfad_303"
         data-name="Pfad 303"
         d="m 151.9,537.187 c -0.142,0.026 -0.283,0.049 -0.425,0.07 -0.142,0.021 -0.287,0.045 -0.432,0.072 -0.558,0.1 -1.114,0.2 -1.676,0.28 -0.476,0.072 -0.952,0.133 -1.426,0.192 -0.549,0.068 -1.1,0.129 -1.657,0.18 q -0.722,0.068 -1.447,0.119 c -0.126,0.009 -0.25,0.019 -0.374,0.031 -0.124,0.012 -0.224,0.021 -0.336,0.028 -0.318,0.017 -0.639,0.026 -0.957,0.037 l -0.665,0.023 c -0.126,0.005 -0.252,0.01 -0.385,0.012 -0.9,0.019 -1.837,0.016 -2.79,-0.01 -0.142,0 -0.283,-0.01 -0.423,-0.018 l -0.3,-0.012 c -0.752,-0.031 -1.51,-0.077 -2.251,-0.136 l -0.248,-0.019 c -0.168,-0.014 -0.336,-0.026 -0.506,-0.042 -1,-0.093 -1.917,-0.2 -2.813,-0.329 -0.075,-0.01 -0.15,-0.023 -0.227,-0.037 l -0.243,-0.038 c -0.785,-0.119 -1.6,-0.261 -2.418,-0.422 -0.25,-0.049 -0.5,-0.1 -0.754,-0.15 -1.085,-0.228 -1.98,-0.436 -2.815,-0.656 A 56.871,56.871 0 0 1 98.077,519.023 c -0.614,-0.694 -1.223,-1.419 -1.809,-2.15 -1.172,-1.464 -2.286,-3.007 -3.315,-4.587 -0.516,-0.794 -1.022,-1.611 -1.5,-2.433 a 56.869,56.869 0 0 1 -5.918,-43.409 c 0.269,-1.029 0.581,-2.078 0.952,-3.206 l 0.084,-0.269 c 0.318,-0.952 0.673,-1.926 1.09,-2.975 l 0.154,-0.4 c 0.373,-0.917 0.787,-1.865 1.233,-2.815 l 0.206,-0.441 c 0.434,-0.9 0.9,-1.812 1.385,-2.7 0.077,-0.143 0.156,-0.283 0.236,-0.429 0.506,-0.906 1.027,-1.786 1.55,-2.617 l 0.236,-0.369 c 0.581,-0.906 1.165,-1.77 1.737,-2.566 l 0.191,-0.259 c 0.682,-0.936 1.322,-1.77 1.973,-2.566 l 0.054,-0.065 c 0.679,-0.827 1.4,-1.655 2.139,-2.463 l 0.112,-0.124 c 0.675,-0.729 1.4,-1.473 2.223,-2.269 l 0.255,-0.25 c 0.712,-0.681 1.457,-1.356 2.279,-2.064 l 0.339,-0.292 c 0.759,-0.642 1.553,-1.279 2.363,-1.893 l 0.385,-0.289 c 0.82,-0.616 1.653,-1.2 2.472,-1.751 l 0.387,-0.254 c 0.908,-0.595 1.762,-1.125 2.612,-1.618 l 0.336,-0.192 c 0.827,-0.474 1.6,-0.9 2.351,-1.281 q -0.438,1.674 -0.771,3.3 c -0.64,3.124 -1.294,7.191 -1.95,12.1 A 46.066,46.066 0 0 0 96.627,469.36 c -0.2,0.752 -0.378,1.516 -0.535,2.267 q -0.024,0.113 -0.042,0.226 l -0.017,0.093 c -0.156,0.768 -0.271,1.4 -0.364,1.989 l -0.007,0.047 a 45.929,45.929 0 0 0 29.04,49.837 l 0.1,0.04 c 0.682,0.255 1.361,0.481 1.882,0.651 l 0.107,0.039 c 0.073,0.024 0.145,0.051 0.224,0.075 0.736,0.234 1.489,0.453 2.237,0.649 l 0.24,0.063 v 0 a 45.538,45.538 0 0 0 8.1,1.293 14.3,14.3 0 0 0 1.616,0.1 h 0.066 a 69.908,69.908 0 0 0 17.983,-2.82 l 0.051,-0.016 c 13.562,-4.382 27.291,-13.113 38.658,-24.583 12.3,-12.415 20.486,-25.482 24.333,-38.836 l 0.327,-1.142 -0.878,-0.8 c -10.589,-9.6 -25.048,-17.154 -40.718,-21.275 -15.614,-4.109 -31.874,-4.657 -45.788,-1.541 l -1.191,0.266 -0.255,1.195 c -2.984,13.931 -2.285,30.184 1.966,45.767 a 100.865,100.865 0 0 0 17.446,35.563 c -1.6,0.341 -3.378,0.644 -5.386,0.915 a 69.408,69.408 0 0 1 -7.625,0.658 117.444,117.444 0 0 1 -19.262,-74.239 c 0.056,-0.541 0.108,-1.071 0.145,-1.566 a 81.993,81.993 0 0 1 3.929,-18.46 c 0.024,-0.061 0.049,-0.124 0.07,-0.186 0.383,-1.1 0.763,-2.1 1.165,-3.072 l 0.031,-0.072 c 0.4,-0.969 0.854,-1.966 1.34,-2.967 l 0.1,-0.217 c 0.436,-0.889 0.917,-1.8 1.471,-2.79 l 0.2,-0.359 c 0.481,-0.843 1.013,-1.72 1.583,-2.606 l 0.266,-0.411 c 0.537,-0.82 1.113,-1.651 1.711,-2.468 l 0.3,-0.408 c 0.616,-0.824 1.24,-1.618 1.861,-2.365 l 0.3,-0.36 c 0.694,-0.822 1.356,-1.567 2.026,-2.279 l 0.264,-0.274 c 0.782,-0.822 1.511,-1.55 2.234,-2.23 l 0.143,-0.131 c 0.789,-0.738 1.6,-1.457 2.416,-2.138 l 0.093,-0.08 c 0.784,-0.651 1.608,-1.3 2.519,-1.973 l 0.275,-0.2 c 0.794,-0.582 1.625,-1.156 2.545,-1.756 l 0.371,-0.245 c 0.82,-0.527 1.7,-1.055 2.6,-1.569 l 0.429,-0.241 c 0.887,-0.495 1.791,-0.971 2.689,-1.41 l 0.434,-0.21 c 0.945,-0.453 1.889,-0.878 2.806,-1.258 l 0.39,-0.157 c 1.055,-0.429 2.027,-0.794 2.965,-1.116 l 0.271,-0.089 c 1.139,-0.383 2.185,-0.705 3.2,-0.981 0.92,-0.252 1.873,-0.486 2.834,-0.7 0.068,-0.016 0.136,-0.026 0.2,-0.04 0.093,-0.017 0.185,-0.035 0.276,-0.054 0.957,-0.2 1.693,-0.343 2.407,-0.462 l 0.142,-0.023 a 57.247,57.247 0 0 1 62.588,35.84 l 0.014,0.031 c 0.269,0.7 0.548,1.476 0.848,2.379 0.026,0.079 0.054,0.157 0.084,0.234 0.018,0.049 0.035,0.1 0.051,0.145 0.308,0.943 0.591,1.884 0.84,2.8 0.236,0.864 0.464,1.8 0.7,2.864 l 0.1,0.45 c 0.185,0.889 0.357,1.819 0.509,2.774 0.024,0.159 0.049,0.32 0.079,0.512 0.149,1 0.266,1.919 0.355,2.816 l 0.03,0.352 c 0.093,0.974 0.159,1.931 0.2,2.85 l 0.009,0.165 c 0.037,0.9 0.049,1.844 0.038,2.9 l -0.005,0.46 c -0.01,0.605 -0.031,1.218 -0.063,1.828 q -0.918,-0.9 -1.842,-1.735 c -2.509,-2.269 -5.92,-5.089 -10.144,-8.388 a 44.071,44.071 0 0 0 -1.02,-4.833 45.744,45.744 0 0 0 -82.861,-12.34 l -2.131,3.369 3.96,-0.458 a 116.973,116.973 0 0 1 79.583,20.955 81.729,81.729 0 0 1 14.007,12.6 57.568,57.568 0 0 1 12.061,22.545 v 0 a 57.2,57.2 0 0 1 -51.944,72.206 c -0.92,0.051 -1.861,0.079 -2.874,0.084 -0.177,0.005 -0.353,0 -0.53,-0.007 -0.14,0 -0.28,-0.007 -0.418,-0.007 -0.715,-0.009 -1.312,-0.018 -1.917,-0.044 -0.25,-0.012 -0.5,-0.03 -0.747,-0.047 l -0.381,-0.026 c -0.577,-0.037 -1.155,-0.073 -1.732,-0.129 -0.3,-0.028 -0.605,-0.063 -0.908,-0.1 l -0.285,-0.033 c -0.551,-0.063 -1.1,-0.13 -1.648,-0.208 -0.387,-0.056 -0.771,-0.121 -1.156,-0.185 l -0.061,-0.011 c -0.537,-0.089 -1.072,-0.184 -1.606,-0.289 -0.408,-0.079 -0.812,-0.164 -1.218,-0.254 -0.528,-0.116 -1.055,-0.238 -1.583,-0.371 q -0.6,-0.147 -1.2,-0.31 c -0.523,-0.143 -1.044,-0.3 -1.566,-0.453 l -0.052,-0.016 c -0.376,-0.114 -0.75,-0.226 -1.123,-0.348 -0.528,-0.172 -1.051,-0.357 -1.576,-0.544 l -0.241,-0.086 c -0.294,-0.1 -0.588,-0.208 -0.883,-0.322 -0.537,-0.2 -1.065,-0.423 -1.615,-0.652 l -0.336,-0.138 c -0.231,-0.094 -0.465,-0.189 -0.7,-0.292 -0.563,-0.247 -1.111,-0.507 -1.768,-0.824 -0.121,-0.06 -0.243,-0.116 -0.366,-0.172 -0.154,-0.072 -0.308,-0.142 -0.458,-0.219 -0.871,-0.436 -1.721,-0.887 -2.528,-1.34 -0.054,-0.032 -0.107,-0.065 -0.159,-0.1 -0.077,-0.047 -0.154,-0.095 -0.234,-0.14 -0.785,-0.451 -1.462,-0.857 -2.068,-1.24 -0.177,-0.112 -0.352,-0.227 -0.525,-0.344 l -0.348,-0.234 c -0.513,-0.336 -1.023,-0.672 -1.527,-1.027 -0.217,-0.152 -0.429,-0.311 -0.642,-0.469 l -0.318,-0.236 c -0.455,-0.336 -0.911,-0.672 -1.359,-1.025 -0.268,-0.21 -0.532,-0.425 -0.794,-0.642 l -0.187,-0.154 c -0.124,-0.1 -0.248,-0.2 -0.373,-0.3 -0.159,-0.126 -0.318,-0.254 -0.474,-0.385 l -0.7,-0.595 z m 50.859,1.081 c 0.735,-0.2 1.487,-0.427 2.234,-0.672 0.072,-0.023 0.143,-0.049 0.215,-0.075 l 0.086,-0.031 c 0.729,-0.243 1.335,-0.46 1.929,-0.687 l 0.042,-0.017 a 45.925,45.925 0 0 0 28.62,-50.086 l -0.01,-0.075 c -0.1,-0.612 -0.227,-1.256 -0.392,-2.029 l -0.012,-0.072 c -0.014,-0.068 -0.026,-0.135 -0.04,-0.2 -0.168,-0.766 -0.355,-1.529 -0.558,-2.267 a 45.972,45.972 0 0 0 -3.518,-8.981 l -1.858,-3.6 -1.587,3.724 c -5.035,11.822 -13.043,23.322 -23.8,34.178 a 114.08,114.08 0 0 1 -34.243,23.955 l -3.644,1.618 3.548,1.819 a 46.033,46.033 0 0 0 21.014,5.1 45.542,45.542 0 0 0 11.977,-1.602 z"
         transform="translate(-83.633,-387.142)"
         fill="#f4f5f9" />
    </clipPath>
    <clipPath
       id="clip-path-2">
      <path
         id="Pfad_412"
         data-name="Pfad 412"
         d="m 581.507,1668.734 c -0.14,0.027 -0.282,0.049 -0.424,0.071 -0.142,0.022 -0.288,0.045 -0.433,0.071 -0.557,0.1 -1.114,0.2 -1.676,0.279 -0.475,0.072 -0.95,0.134 -1.425,0.193 -0.55,0.068 -1.1,0.128 -1.656,0.18 -0.482,0.046 -0.964,0.086 -1.448,0.119 -0.125,0.01 -0.25,0.02 -0.374,0.032 -0.124,0.012 -0.223,0.021 -0.336,0.027 -0.318,0.018 -0.637,0.027 -0.956,0.036 l -0.664,0.023 c -0.127,0 -0.253,0.011 -0.386,0.013 -0.9,0.019 -1.836,0.016 -2.789,-0.01 -0.141,0 -0.283,-0.011 -0.424,-0.017 l -0.3,-0.013 c -0.752,-0.031 -1.509,-0.076 -2.251,-0.136 l -0.248,-0.02 c -0.168,-0.013 -0.336,-0.026 -0.505,-0.042 -1,-0.093 -1.918,-0.2 -2.813,-0.329 -0.076,-0.01 -0.151,-0.024 -0.227,-0.036 l -0.243,-0.039 c -0.787,-0.12 -1.6,-0.262 -2.418,-0.422 -0.251,-0.049 -0.5,-0.1 -0.754,-0.151 -1.086,-0.227 -1.98,-0.436 -2.815,-0.656 a 56.861,56.861 0 0 1 -28.254,-17.339 c -0.614,-0.695 -1.223,-1.418 -1.808,-2.149 -1.172,-1.465 -2.288,-3.008 -3.315,-4.588 -0.516,-0.793 -1.021,-1.611 -1.5,-2.432 a 56.871,56.871 0 0 1 -5.919,-43.409 c 0.271,-1.028 0.582,-2.078 0.952,-3.206 l 0.085,-0.271 c 0.317,-0.952 0.673,-1.926 1.088,-2.975 l 0.155,-0.4 c 0.372,-0.918 0.786,-1.865 1.232,-2.816 l 0.207,-0.441 c 0.434,-0.9 0.9,-1.813 1.385,-2.7 0.078,-0.143 0.156,-0.285 0.238,-0.429 0.5,-0.905 1.026,-1.785 1.549,-2.616 l 0.237,-0.37 c 0.58,-0.906 1.164,-1.769 1.736,-2.566 l 0.192,-0.26 c 0.681,-0.935 1.322,-1.769 1.973,-2.566 l 0.054,-0.065 c 0.677,-0.826 1.4,-1.654 2.139,-2.461 l 0.111,-0.124 c 0.675,-0.731 1.4,-1.473 2.224,-2.27 l 0.254,-0.249 c 0.712,-0.682 1.458,-1.357 2.28,-2.064 l 0.339,-0.292 c 0.759,-0.642 1.553,-1.279 2.363,-1.894 l 0.384,-0.289 c 0.822,-0.615 1.654,-1.2 2.472,-1.75 l 0.387,-0.254 c 0.907,-0.595 1.762,-1.125 2.611,-1.619 l 0.336,-0.191 c 0.828,-0.474 1.6,-0.9 2.35,-1.281 q -0.438,1.674 -0.771,3.3 c -0.64,3.124 -1.3,7.19 -1.95,12.1 a 46.061,46.061 0 0 0 -15.527,23.933 c -0.2,0.751 -0.378,1.515 -0.535,2.267 -0.016,0.075 -0.03,0.15 -0.043,0.225 l -0.017,0.092 c -0.156,0.768 -0.272,1.4 -0.364,1.99 l -0.006,0.047 a 45.926,45.926 0 0 0 29.039,49.837 l 0.1,0.04 c 0.683,0.256 1.36,0.482 1.882,0.652 l 0.107,0.037 c 0.072,0.026 0.145,0.051 0.223,0.075 0.736,0.234 1.49,0.453 2.239,0.65 l 0.239,0.063 v 0 a 45.643,45.643 0 0 0 8.1,1.292 14.378,14.378 0 0 0 1.615,0.1 h 0.067 a 69.925,69.925 0 0 0 17.983,-2.82 l 0.051,-0.016 c 13.562,-4.382 27.291,-13.113 38.657,-24.584 12.3,-12.414 20.487,-25.481 24.332,-38.836 l 0.328,-1.141 -0.88,-0.8 c -10.587,-9.6 -25.048,-17.153 -40.717,-21.275 -15.614,-4.109 -31.875,-4.656 -45.788,-1.541 l -1.191,0.266 -0.256,1.194 c -2.984,13.931 -2.286,30.186 1.966,45.768 a 100.839,100.839 0 0 0 17.445,35.563 c -1.595,0.342 -3.379,0.645 -5.386,0.915 a 69.476,69.476 0 0 1 -7.626,0.658 117.453,117.453 0 0 1 -19.261,-74.239 c 0.057,-0.541 0.108,-1.07 0.146,-1.565 a 81.948,81.948 0 0 1 3.928,-18.461 c 0.025,-0.062 0.049,-0.124 0.07,-0.185 0.384,-1.1 0.763,-2.1 1.165,-3.071 l 0.031,-0.072 c 0.4,-0.969 0.854,-1.966 1.34,-2.967 l 0.1,-0.216 c 0.436,-0.889 0.917,-1.8 1.472,-2.791 l 0.2,-0.358 c 0.481,-0.843 1.014,-1.719 1.584,-2.606 l 0.265,-0.411 c 0.537,-0.82 1.113,-1.651 1.712,-2.468 l 0.3,-0.408 c 0.615,-0.824 1.24,-1.618 1.861,-2.365 l 0.3,-0.36 c 0.694,-0.822 1.357,-1.567 2.026,-2.279 l 0.265,-0.276 c 0.781,-0.821 1.51,-1.549 2.233,-2.229 l 0.144,-0.132 c 0.789,-0.739 1.6,-1.457 2.416,-2.138 l 0.093,-0.08 c 0.783,-0.651 1.607,-1.3 2.519,-1.973 l 0.274,-0.206 c 0.795,-0.583 1.625,-1.156 2.546,-1.757 l 0.371,-0.244 c 0.82,-0.527 1.695,-1.055 2.6,-1.57 l 0.428,-0.242 c 0.888,-0.5 1.792,-0.97 2.69,-1.41 l 0.434,-0.21 c 0.944,-0.454 1.889,-0.878 2.8,-1.258 l 0.391,-0.157 c 1.055,-0.429 2.027,-0.795 2.964,-1.116 l 0.272,-0.089 c 1.138,-0.384 2.186,-0.7 3.2,-0.982 0.921,-0.252 1.873,-0.486 2.834,-0.7 0.068,-0.016 0.137,-0.027 0.205,-0.04 0.093,-0.017 0.185,-0.035 0.275,-0.054 0.957,-0.2 1.694,-0.345 2.408,-0.463 l 0.142,-0.022 a 57.245,57.245 0 0 1 62.602,35.848 l 0.014,0.032 c 0.268,0.7 0.546,1.477 0.848,2.379 0.026,0.08 0.055,0.157 0.083,0.236 0.018,0.048 0.036,0.1 0.052,0.145 0.308,0.942 0.591,1.883 0.841,2.8 0.235,0.863 0.463,1.8 0.7,2.864 l 0.1,0.449 c 0.186,0.889 0.357,1.82 0.509,2.774 0.026,0.16 0.05,0.32 0.079,0.513 0.149,1 0.265,1.919 0.355,2.816 l 0.031,0.352 c 0.091,0.974 0.158,1.931 0.2,2.85 l 0.009,0.164 c 0.036,0.895 0.049,1.843 0.038,2.9 v 0.46 c -0.011,0.605 -0.032,1.217 -0.063,1.828 q -0.919,-0.9 -1.842,-1.737 c -2.509,-2.268 -5.919,-5.088 -10.143,-8.387 a 44.247,44.247 0 0 0 -1.02,-4.833 45.744,45.744 0 0 0 -82.861,-12.341 l -2.131,3.369 3.96,-0.458 a 116.984,116.984 0 0 1 79.584,20.956 81.8,81.8 0 0 1 14.006,12.6 57.586,57.586 0 0 1 12.061,22.546 v 0 a 57.2,57.2 0 0 1 -51.944,72.206 c -0.921,0.051 -1.861,0.079 -2.874,0.085 -0.177,0 -0.353,0 -0.53,-0.01 -0.14,0 -0.281,-0.01 -0.419,-0.01 -0.716,-0.01 -1.312,-0.016 -1.918,-0.044 -0.25,-0.011 -0.5,-0.029 -0.746,-0.046 l -0.382,-0.026 c -0.577,-0.037 -1.153,-0.074 -1.732,-0.13 -0.3,-0.028 -0.6,-0.064 -0.907,-0.1 l -0.286,-0.034 c -0.55,-0.063 -1.1,-0.13 -1.647,-0.209 -0.387,-0.056 -0.771,-0.12 -1.156,-0.185 l -0.062,-0.01 c -0.537,-0.089 -1.072,-0.185 -1.606,-0.289 -0.407,-0.08 -0.812,-0.165 -1.217,-0.254 -0.528,-0.116 -1.055,-0.239 -1.583,-0.37 -0.4,-0.1 -0.8,-0.2 -1.2,-0.311 -0.524,-0.142 -1.046,-0.295 -1.567,-0.453 l -0.052,-0.015 c -0.375,-0.113 -0.75,-0.226 -1.124,-0.348 -0.527,-0.172 -1.05,-0.357 -1.575,-0.545 l -0.242,-0.085 c -0.294,-0.1 -0.588,-0.208 -0.884,-0.322 -0.536,-0.2 -1.065,-0.424 -1.615,-0.653 l -0.335,-0.137 c -0.232,-0.1 -0.465,-0.19 -0.7,-0.292 -0.564,-0.247 -1.111,-0.508 -1.769,-0.824 -0.122,-0.059 -0.244,-0.115 -0.367,-0.172 -0.153,-0.071 -0.307,-0.142 -0.457,-0.218 -0.872,-0.436 -1.722,-0.887 -2.527,-1.341 -0.054,-0.03 -0.107,-0.063 -0.16,-0.1 -0.077,-0.047 -0.154,-0.094 -0.233,-0.139 -0.786,-0.452 -1.463,-0.858 -2.069,-1.241 -0.176,-0.112 -0.35,-0.229 -0.523,-0.346 l -0.349,-0.234 c -0.512,-0.336 -1.024,-0.672 -1.527,-1.028 -0.216,-0.152 -0.428,-0.31 -0.641,-0.468 l -0.319,-0.236 c -0.455,-0.337 -0.911,-0.672 -1.36,-1.024 -0.268,-0.21 -0.531,-0.426 -0.794,-0.643 l -0.187,-0.154 c -0.123,-0.1 -0.248,-0.2 -0.372,-0.3 -0.159,-0.127 -0.318,-0.254 -0.474,-0.386 l -0.7,-0.595 z m 50.859,1.081 c 0.736,-0.2 1.488,-0.426 2.234,-0.671 0.072,-0.023 0.145,-0.049 0.216,-0.076 l 0.084,-0.03 c 0.731,-0.244 1.336,-0.46 1.931,-0.689 l 0.043,-0.017 a 45.923,45.923 0 0 0 28.616,-50.087 l -0.012,-0.075 c -0.1,-0.613 -0.226,-1.257 -0.391,-2.031 l -0.013,-0.071 c -0.013,-0.067 -0.025,-0.134 -0.039,-0.2 -0.168,-0.766 -0.356,-1.53 -0.558,-2.268 a 46.035,46.035 0 0 0 -3.518,-8.981 l -1.859,-3.6 -1.587,3.725 c -5.034,11.821 -13.042,23.321 -23.8,34.179 a 114.131,114.131 0 0 1 -34.242,23.954 l -3.644,1.618 3.548,1.819 a 46.032,46.032 0 0 0 21.015,5.1 45.522,45.522 0 0 0 11.976,-1.6 z"
         transform="translate(-513.238,-1518.689)"
         fill="none" />
    </clipPath>
  </defs>
  <path
     id="Pfad_293-7"
     data-name="Pfad 293"
     d="M 0.93804703,0.64788426 10.5496,10.714465 23.998327,7.4934553 A 23.87742,23.475937 0 0 0 0.93804703,0.64788426 Z"
     fill="#00ffa3"
     style="stroke-width:0.41487" />
  <path
     id="Pfad_294-0"
     data-name="Pfad 294"
     d="M 6.7237234,24 A 23.87491,23.473469 0 0 0 24,7.4938667 L 10.551273,10.714876 Z"
     fill="#008869"
     opacity="0.5"
     style="stroke-width:0.41487" />
  <path
     id="Pfad_295-7"
     data-name="Pfad 295"
     d="M 6.7237234,24 10.550855,10.712819 0.93804703,0.64623879 h -0.004185 A 24.861085,24.443063 0 0 0 6.7237234,24 Z"
     fill="#008869"
     style="stroke-width:0.41487" />
</svg>
